<svg width="362" height="302" viewBox="0 0 362 302" fill="none" xmlns="http://www.w3.org/2000/svg">
<g filter="url(#filter0_d_704_161)">
<rect x="21" y="9" width="320" height="260" rx="5" fill="white"/>
<g clip-path="url(#clip0_704_161)">
<path opacity="0.5" d="M270.138 144.268C269.772 142.755 268.568 141.616 267.682 140.335C266.616 138.757 265.994 136.921 265.879 135.02C265.764 133.119 266.16 131.222 267.027 129.527C267.88 127.906 269.216 126.229 268.732 124.458C268.408 123.267 267.332 122.451 266.275 121.812C262.261 119.394 257.627 118.203 252.945 118.384C247.205 118.618 241.484 120.911 235.855 119.775C230.373 118.665 225.729 115.917 219.993 115.591C215.709 115.348 211.471 115.621 207.178 115.152C196.571 114.001 185.885 113.746 175.235 114.389C164.585 113.746 153.9 114.001 143.293 115.152C139.011 115.621 134.771 115.348 130.478 115.591C124.726 115.915 120.092 118.667 114.608 119.775C108.977 120.913 103.258 118.618 97.5185 118.384C92.8357 118.203 88.2021 119.394 84.1876 121.812C83.1223 122.451 82.0571 123.267 81.7311 124.458C81.2496 126.227 82.5833 127.903 83.4355 129.527C84.3032 131.222 84.7005 133.119 84.5862 135.02C84.472 136.921 83.8502 138.756 82.7857 140.335C81.8994 141.614 80.6956 142.755 80.3292 144.268C79.592 147.311 82.5492 149.991 85.4425 151.199C93.3362 154.499 102.936 152.903 110.157 157.499C113.393 159.561 116.225 162.872 120.06 162.996C122.653 163.079 125.011 161.639 127.276 160.371C130.665 158.474 134.208 156.865 137.867 155.562C141.063 154.425 144.448 153.513 147.821 153.89C152.97 154.459 175.23 165.214 185.265 158.858C192.139 154.501 197.499 154.465 202.661 153.888C206.034 153.511 209.417 154.422 212.615 155.56C216.274 156.863 219.817 158.471 223.206 160.369C225.469 161.636 227.83 163.077 230.422 162.994C234.257 162.87 237.089 159.559 240.325 157.497C247.541 152.899 257.14 154.497 265.04 151.197C267.918 149.984 270.877 147.313 270.138 144.268Z" fill="url(#paint0_linear_704_161)"/>
<path d="M269.094 144.206C268.732 142.715 267.541 141.582 266.665 140.316C265.614 138.754 265 136.938 264.888 135.059C264.775 133.179 265.169 131.303 266.026 129.627C266.878 128.023 268.191 126.365 267.714 124.616C267.392 123.438 266.329 122.63 265.285 122C261.315 119.608 256.732 118.429 252.101 118.608C246.425 118.838 240.768 121.107 235.199 119.982C229.775 118.887 225.186 116.164 219.503 115.842C215.266 115.604 211.066 115.872 206.831 115.416C196.34 114.278 185.772 114.026 175.239 114.662C164.706 114.026 154.138 114.278 143.647 115.416C139.412 115.881 135.212 115.61 130.975 115.842C125.295 116.162 120.703 118.885 115.279 119.982C109.712 121.107 104.053 118.838 98.3771 118.608C93.7458 118.429 89.1633 119.608 85.1932 122C84.1493 122.639 83.0861 123.438 82.7644 124.616C82.2872 126.365 83.6166 128.025 84.4518 129.627C85.3095 131.303 85.7025 133.179 85.5901 135.059C85.4777 136.938 84.864 138.754 83.8126 140.316C82.9349 141.582 81.746 142.709 81.3838 144.206C80.636 147.215 83.5612 149.865 86.4183 151.05C94.2268 154.312 103.721 152.733 110.856 157.279C114.052 159.318 116.858 162.595 120.656 162.717C123.213 162.8 125.557 161.374 127.794 160.119C131.146 158.242 134.65 156.651 138.27 155.362C141.433 154.235 144.778 153.334 148.115 153.707C153.228 154.277 175.237 164.907 185.152 158.622C191.951 154.314 197.252 154.277 202.357 153.707C205.693 153.334 209.04 154.235 212.202 155.362C215.821 156.651 219.326 158.242 222.678 160.119C224.917 161.372 227.25 162.798 229.815 162.717C233.608 162.595 236.409 159.321 239.616 157.279C246.753 152.733 256.247 154.312 264.053 151.05C266.9 149.865 269.825 147.215 269.094 144.206Z" fill="#00BAFC"/>
<path opacity="0.6" d="M87.0468 79.706C87.6562 79.4929 88.3039 79.2905 88.9409 79.4013C90.0062 79.5867 90.754 80.5966 91.0714 81.6341C91.3889 82.6717 91.3782 83.7647 91.5806 84.83C91.783 85.8953 92.2667 86.9967 93.2212 87.5059C94.1757 88.0152 95.3027 87.8149 96.3616 87.6913C97.7504 87.5311 99.1523 87.5183 100.544 87.653C101.711 87.7659 103.084 88.16 103.427 89.2828C103.708 90.199 103.15 91.1343 102.787 92.0185C102.093 93.6718 102.037 95.6255 102.832 97.2319C103.627 98.8384 105.237 100.036 105.911 101.732C106.106 102.156 106.162 102.631 106.073 103.089C105.973 103.41 105.809 103.707 105.591 103.962C105.063 104.642 104.432 105.241 103.951 105.957C102.947 107.448 102.672 109.302 102.557 111.093C102.442 112.855 102.452 114.623 102.587 116.383C101.279 115.957 99.8344 116.337 98.4858 116.057C95.6159 115.465 93.8241 112.069 90.901 111.862C89.5183 111.764 88.0311 112.416 86.7976 111.784C86.2082 111.444 85.747 110.92 85.4851 110.292C84.9637 109.181 84.8447 107.923 85.1485 106.734C85.3616 105.912 85.7877 105.106 85.7046 104.261C85.6343 103.536 85.1996 102.897 84.7011 102.367C83.28 100.858 81.2176 99.9356 80.1971 98.131C79.7329 97.2738 79.5393 96.2962 79.6416 95.3268C79.7439 94.3574 80.1374 93.4417 80.7702 92.7002C81.1345 92.3447 81.4794 91.9699 81.8035 91.5774C82.2936 90.8871 82.4427 90.0157 82.5087 89.1699C82.6494 87.1438 82.2957 84.9983 82.9583 83.0297C83.5527 81.2485 85.3679 80.3026 87.0468 79.706Z" fill="#00BAFC"/>
<path opacity="0.6" d="M87.0767 79.7657C87.0767 79.7657 92.8952 112.08 100.45 115.934" stroke="#535461" stroke-miterlimit="10"/>
<path opacity="0.6" d="M103.265 88.7097C103.265 88.7097 97.0327 89.5619 90.8073 95.9643" stroke="#535461" stroke-miterlimit="10"/>
<path opacity="0.6" d="M91.9024 99.7183C91.9024 99.7183 87.1065 95.0311 79.6133 95.8258" stroke="#535461" stroke-miterlimit="10"/>
<path opacity="0.6" d="M106.009 101.757C106.009 101.757 97.2564 102.501 94.0159 105.861" stroke="#535461" stroke-miterlimit="10"/>
<path opacity="0.6" d="M95.3262 108.99C95.3262 108.99 90.4259 108.138 85.9027 111.025" stroke="#535461" stroke-miterlimit="10"/>
<path opacity="0.6" d="M267.183 54.3226C266.205 53.9753 265.168 53.6579 264.147 53.8347C262.443 54.133 261.241 55.7522 260.738 57.4119C260.235 59.0716 260.246 60.8421 259.922 62.5465C259.598 64.251 258.823 66.0172 257.293 66.8353C255.763 67.6535 253.957 67.3296 252.259 67.1336C250.034 66.8743 247.789 66.8508 245.56 67.0633C243.687 67.2444 241.491 67.8772 240.941 69.6754C240.492 71.1454 241.384 72.6411 241.981 74.0579C243.095 76.7062 243.185 79.8402 241.908 82.4161C240.611 85.0366 238.052 86.9115 236.974 89.628C236.701 90.3183 236.529 91.0832 236.714 91.8012C236.874 92.3161 237.137 92.7931 237.487 93.2031C238.34 94.2939 239.345 95.2548 240.117 96.3989C241.725 98.7851 242.162 101.759 242.349 104.631C242.533 107.455 242.518 110.288 242.302 113.109C244.399 112.419 246.717 113.034 248.877 112.589C253.477 111.641 256.349 106.197 261.034 105.865C263.25 105.709 265.634 106.751 267.611 105.737C268.574 105.243 269.258 104.32 269.716 103.338C270.538 101.558 270.718 99.5476 270.226 97.6495C269.878 96.3307 269.203 95.0417 269.335 93.6846C269.448 92.5234 270.142 91.4986 270.944 90.6507C273.221 88.2325 276.528 86.7539 278.164 83.8627C279.698 81.1527 279.31 77.486 277.246 75.1573C276.705 74.5458 276.061 74.0217 275.588 73.357C274.802 72.2512 274.551 70.8536 274.457 69.4985C274.233 66.2494 274.785 62.8128 273.735 59.6575C272.776 56.7855 269.868 55.2664 267.183 54.3226Z" fill="#00BAFC"/>
<path opacity="0.6" d="M267.128 54.4078C267.128 54.4078 257.802 106.204 245.69 112.38" stroke="#535461" stroke-miterlimit="10"/>
<path opacity="0.6" d="M241.18 68.7443C241.18 68.7443 251.168 70.1164 261.147 80.375" stroke="#535461" stroke-miterlimit="10"/>
<path opacity="0.6" d="M259.392 86.3895C259.392 86.3895 267.081 78.8708 279.089 80.1491" stroke="#535461" stroke-miterlimit="10"/>
<path opacity="0.6" d="M236.793 89.6578C236.793 89.6578 250.82 90.8488 256.015 96.237" stroke="#535461" stroke-miterlimit="10"/>
<path opacity="0.6" d="M253.905 101.252C253.905 101.252 261.765 99.876 269.011 104.512" stroke="#535461" stroke-miterlimit="10"/>
<path d="M95.5627 33V38.3243V138.505H250.439V38.3243V33H95.5627Z" fill="url(#paint1_linear_704_161)"/>
<path d="M248.798 37.7874H97.8594V136.596H248.798V37.7874Z" fill="white"/>
<path d="M248.798 33.0874H97.8594V40.3568H248.798V33.0874Z" fill="#EEEEEE"/>
<path d="M103.603 38.3733C104.576 38.3733 105.365 37.5844 105.365 36.6113C105.365 35.6382 104.576 34.8493 103.603 34.8493C102.63 34.8493 101.841 35.6382 101.841 36.6113C101.841 37.5844 102.63 38.3733 103.603 38.3733Z" fill="#FF5252"/>
<path d="M108.45 38.3733C109.423 38.3733 110.212 37.5844 110.212 36.6113C110.212 35.6382 109.423 34.8493 108.45 34.8493C107.477 34.8493 106.688 35.6382 106.688 36.6113C106.688 37.5844 107.477 38.3733 108.45 38.3733Z" fill="#FFFF00"/>
<path d="M113.297 38.3733C114.27 38.3733 115.059 37.5844 115.059 36.6113C115.059 35.6382 114.27 34.8493 113.297 34.8493C112.324 34.8493 111.535 35.6382 111.535 36.6113C111.535 37.5844 112.324 38.3733 113.297 38.3733Z" fill="#69F0AE"/>
<path opacity="0.5" d="M159.89 52.0003H103.644V54.3439H159.89V52.0003Z" fill="#00BAFC"/>
<path opacity="0.5" d="M159.89 56.6875H103.644V59.0311H159.89V56.6875Z" fill="#00BAFC"/>
<path opacity="0.5" d="M159.89 61.3747H103.644V63.7183H159.89V61.3747Z" fill="#00BAFC"/>
<path opacity="0.5" d="M159.89 66.0619H123.032V68.4056H159.89V66.0619Z" fill="#00BAFC"/>
<path opacity="0.5" d="M133.259 70.7491H103.644V73.0928H133.259V70.7491Z" fill="#00BAFC"/>
<path opacity="0.5" d="M142.42 75.4364H119.623V77.78H142.42V75.4364Z" fill="#00BAFC"/>
<path opacity="0.5" d="M233.608 68.4056H167.347V106.542H233.608V68.4056Z" fill="#00BAFC"/>
<path d="M241.491 72.0275H175.23V110.164H241.491V72.0275Z" fill="#EEEEEE"/>
<path opacity="0.5" d="M281.328 107.211C281.465 107.036 281.54 106.819 281.541 106.596C281.541 106.596 281.541 106.583 281.541 106.579C281.541 106.574 281.554 106.534 281.56 106.513V106.485C281.561 106.464 281.561 106.444 281.56 106.423C281.56 106.423 281.56 106.406 281.56 106.398C281.562 106.372 281.562 106.346 281.56 106.321C281.434 105.469 276.37 99.9164 275.104 93.1434C274.964 92.406 274.755 91.6834 274.48 90.9851C274.519 90.6359 274.496 90.2824 274.412 89.9412C274.199 89.074 273.773 88.1941 273.986 87.3291C274.016 87.216 274.055 87.1055 274.103 86.9989C274.369 86.6085 274.613 86.2038 274.834 85.7866C274.916 85.6506 274.988 85.5081 275.047 85.3605C275.825 83.3109 273.417 81.1953 273.86 79.0562C274.052 78.1294 274.77 77.3198 274.751 76.3759C274.727 75.2958 273.735 74.4584 272.703 74.0579C271.672 73.6574 270.537 73.5423 269.525 73.0949C267.307 72.1127 266.092 69.7414 264.068 68.4226C261.497 66.7501 258.141 67.0484 255.058 67.4809C254.957 67.4958 254.86 67.5355 254.778 67.5964C254.695 67.6573 254.629 67.7377 254.585 67.8303H254.555C254.532 67.8985 254.504 67.9645 254.474 68.0306C254.048 68.7571 253.33 69.3089 252.621 69.8181C251.756 70.4274 250.829 71.0283 250.301 71.9316C250.222 72.0658 250.156 72.1937 250.098 72.3172C248.948 74.369 250.33 75.2553 252.016 75.7474C251.965 76.0409 251.94 76.3381 251.939 76.6359C251.939 79.6186 254.434 82.0539 257.508 82.0539C257.751 82.0536 257.994 82.0379 258.235 82.007L258.414 82.1242H258.454C259.025 82.5354 259.519 83.051 259.733 83.6646L257.947 85.0281C257.947 85.0281 258.02 85.2156 258.126 85.5139L251.108 88.7481C248.449 88.8716 244.145 80.4964 244.145 80.4964C244.145 80.4964 243.506 75.6942 241.233 74.8313C240.547 74.5714 240.274 75.1147 240.227 76.001C239.211 77.0662 240.918 83.0488 240.918 83.0488L246.361 92.6555C246.868 93.6398 247 94.2556 249.399 94.6263C251.374 94.9288 257.527 92.7428 259.669 91.9503L259.769 92.8025C259.52 93.4522 259.41 94.1467 259.445 94.8414C259.445 96.4117 260.146 98.6956 263.568 100.515C263.568 100.515 267.1 105.081 266.708 109.391C266.708 109.391 266.878 109.57 267.151 109.804C267.113 111.019 266.938 112.517 266.327 113.1C266.286 113.138 266.256 113.186 266.239 113.239C266.223 113.292 266.22 113.348 266.231 113.403C266.218 113.467 266.225 113.533 266.252 113.592C266.279 113.651 266.323 113.701 266.38 113.733L261.921 121.542C261.754 121.755 261.586 121.968 261.414 122.181C260.586 123.236 259.667 124.216 258.667 125.11C257.924 125.773 257.15 126.497 256.997 126.768C256.76 127.194 256.166 128.568 256.417 129.704C256.743 131.081 256.876 132.496 256.814 133.909L256.236 144.01C256.043 145.138 255.776 146.252 255.437 147.345H255.35C255.35 147.345 253.198 149.931 249.781 150.54C246.363 151.15 246.489 152.884 247.501 153.127C248.513 153.37 260.794 152.88 260.794 152.88C260.794 152.88 261.258 151.974 261.13 151.148C265.05 150.771 270.481 150.131 270.481 150.131C270.481 150.131 271.225 148.344 270.145 147.564C269.738 147.252 269.436 146.823 269.28 146.335C269.216 146.062 269.145 145.751 269.077 145.425C269.06 145.265 269.06 145.167 269.06 145.167H269.024C268.834 144.215 268.683 143.194 268.77 142.66C269.088 141.243 269.91 133.053 267.884 130.714C266.964 129.648 267.089 128.438 267.498 127.428C269.929 125.837 273.33 122.413 275.296 120.342C275.407 120.434 275.509 120.525 275.605 120.617L275.669 120.679C275.669 120.679 282.361 117.366 282.389 111.517C282.399 110.016 282.035 108.536 281.328 107.211ZM259.892 148.467C259.88 148.254 259.888 148.04 259.916 147.828L259.703 147.805C259.826 146.876 260.129 145.836 260.806 145.118C261.97 143.011 262.792 140.733 263.244 138.369L264.473 143.02C264.473 143.02 264.597 143.983 264.631 145.001H264.609C264.609 145.001 262.894 147.449 259.892 148.467Z" fill="url(#paint2_linear_704_161)"/>
<path d="M265.449 88.2282C265.449 88.2282 262.443 89.3105 260.762 91.1151C260.762 91.1151 252.582 94.3621 250.296 94.002C248.01 93.6419 247.891 93.039 247.409 92.0845L242.236 82.7101C242.236 82.7101 240.072 74.8909 242.236 75.7325C244.401 76.5741 245.006 81.2719 245.006 81.2719C245.006 81.2719 249.097 89.4511 251.621 89.3318L258.471 86.0678C258.471 86.0678 260.035 83.7817 260.757 83.9032C261.48 84.0246 265.449 88.2282 265.449 88.2282Z" fill="#FDB797"/>
<g opacity="0.05">
<path opacity="0.05" d="M265.449 88.2282C265.449 88.2282 262.443 89.3105 260.762 91.1151C260.762 91.1151 252.582 94.3621 250.296 94.002C248.01 93.6419 247.891 93.039 247.409 92.0845L242.236 82.7101C242.236 82.7101 240.072 74.8909 242.236 75.7325C244.401 76.5741 245.006 81.2719 245.006 81.2719C245.006 81.2719 249.097 89.4511 251.621 89.3318L258.471 86.0678C258.471 86.0678 260.035 83.7817 260.757 83.9032C261.48 84.0246 265.449 88.2282 265.449 88.2282Z" fill="black"/>
</g>
<path d="M260.51 83.7945L258.111 85.6779C258.111 85.6779 259.311 88.8162 259.01 89.9156C258.71 91.015 263.808 88.1899 263.808 88.1899L261.71 83.4813L260.51 83.7945Z" fill="#F9CE43"/>
<g opacity="0.05">
<path opacity="0.05" d="M260.51 83.7945L258.111 85.6779C258.111 85.6779 259.311 88.8162 259.01 89.9156C258.71 91.015 263.808 88.1899 263.808 88.1899L261.71 83.4813L260.51 83.7945Z" fill="black"/>
</g>
<path d="M256.368 81.6981C256.368 81.6981 261.72 83.443 259.255 86.5089L266.953 82.7804C266.953 82.7804 263.706 83.0211 261.661 78.0932L256.368 81.6981Z" fill="#FDB797"/>
<path d="M266.471 113.094L259.856 125.002L264.309 142.314C264.309 142.314 264.79 146.164 264.068 146.524H269.12C269.12 146.524 268.146 143.116 268.397 141.954C268.698 140.572 269.48 132.58 267.545 130.287C265.611 127.995 268.508 124.995 268.508 124.995L274.282 115.853L266.471 113.094Z" fill="#FDB797"/>
<g opacity="0.05">
<path opacity="0.05" d="M266.471 113.094L259.856 125.002L264.309 142.314C264.309 142.314 264.79 146.164 264.068 146.524H269.12C269.12 146.524 268.218 143.096 268.397 141.954C268.576 140.812 269.48 132.58 267.545 130.287C265.611 127.995 268.508 124.995 268.508 124.995L274.282 115.853L266.471 113.094Z" fill="black"/>
</g>
<path d="M264.437 144.258C264.437 144.258 262.604 146.957 259.409 147.813C256.213 148.67 256.473 150.34 257.451 150.502C258.429 150.664 270.021 149.26 270.021 149.26C270.021 149.26 270.726 147.515 269.701 146.752C268.677 145.99 268.67 144.409 268.67 144.409L264.437 144.258Z" fill="#0D134D"/>
<g opacity="0.1">
<path opacity="0.1" d="M266.834 108.281C266.834 108.281 267.119 112.193 266.077 113.22C266.041 113.254 266.013 113.296 265.996 113.343C265.979 113.39 265.973 113.44 265.98 113.489C265.986 113.539 266.004 113.586 266.032 113.628C266.06 113.669 266.097 113.703 266.141 113.727L269.239 115.378L272.009 110.086L266.834 108.281Z" fill="black"/>
</g>
<path d="M266.834 108.162C266.834 108.162 267.119 112.073 266.077 113.1C266.041 113.134 266.013 113.177 265.996 113.223C265.979 113.27 265.973 113.321 265.98 113.37C265.986 113.42 266.004 113.467 266.032 113.508C266.06 113.549 266.097 113.583 266.141 113.607L269.239 115.259L272.009 109.966L266.834 108.162Z" fill="#E23553"/>
<g opacity="0.1">
<path opacity="0.1" d="M266.834 108.375C266.834 108.375 267.119 112.286 266.077 113.313C266.041 113.347 266.013 113.39 265.996 113.437C265.979 113.483 265.973 113.534 265.98 113.583C265.986 113.633 266.004 113.68 266.032 113.721C266.06 113.762 266.097 113.796 266.141 113.82L269.239 115.472L272.009 110.179L266.834 108.375Z" fill="black"/>
</g>
<path d="M266.953 115.859C266.953 115.859 265.165 117.052 261.413 121.963C260.629 122.992 259.756 123.949 258.804 124.825C258.098 125.464 257.363 126.18 257.216 126.444C256.99 126.851 256.426 128.204 256.667 129.312C256.976 130.658 257.103 132.039 257.044 133.419L256.496 143.286C256.496 143.286 255.774 147.737 254.813 148.218L259.745 149.07C259.745 149.07 259.385 145.943 260.828 144.383C260.828 144.383 264.196 138.609 263.354 132.113C263.354 132.113 262.994 129.226 266.241 127.663C269.488 126.099 276.106 118.52 276.106 118.52L266.953 115.859Z" fill="#FDB797"/>
<path d="M255.646 146.533C255.646 146.533 253.601 149.06 250.354 149.661C247.107 150.261 247.226 151.947 248.189 152.187C249.152 152.428 260.819 151.947 260.819 151.947C260.819 151.947 261.671 150.264 260.7 149.42C259.728 148.576 259.978 147.014 259.978 147.014L255.646 146.533Z" fill="#0D134D"/>
<g opacity="0.1">
<path opacity="0.1" d="M269.961 109.485C269.961 109.485 268.493 114.415 266.633 115.851C266.599 115.877 266.572 115.911 266.556 115.951C266.539 115.991 266.534 116.034 266.54 116.077C266.547 116.12 266.564 116.16 266.592 116.193C266.619 116.226 266.655 116.252 266.695 116.266C268.233 116.827 273.176 118.714 274.894 120.432L274.953 120.491C274.953 120.491 285.237 115.259 279.704 106.357L269.961 109.485Z" fill="black"/>
</g>
<path d="M269.961 109.365C269.961 109.365 268.493 114.296 266.633 115.732C266.599 115.757 266.572 115.792 266.556 115.832C266.539 115.872 266.534 115.915 266.54 115.958C266.547 116 266.564 116.04 266.592 116.074C266.619 116.107 266.655 116.132 266.695 116.147C268.233 116.707 273.176 118.595 274.894 120.312L274.953 120.372C274.953 120.372 285.237 115.139 279.704 106.238L269.961 109.365Z" fill="#E23553"/>
<g opacity="0.1">
<path opacity="0.1" d="M261.516 84.9195C260.752 85.4336 259.916 85.8327 259.036 86.104L259.862 93.4609C259.862 93.4609 257.93 97.7859 263.457 100.807C263.457 100.807 266.812 105.266 266.44 109.476C266.44 109.476 268.24 111.407 269.444 110.927C270.647 110.448 269.563 111.168 269.804 111.049C270.044 110.929 270.524 112.014 274.254 111.059C277.985 110.105 280.646 107.589 280.52 106.745C280.395 105.901 275.605 100.477 274.418 93.8571C273.232 87.2375 266.148 82.529 266.148 82.529C266.148 82.529 265.913 82.6589 265.508 82.8315C264.124 83.4191 262.788 84.1174 261.516 84.9195Z" fill="black"/>
</g>
<g opacity="0.1">
<path opacity="0.1" d="M266.54 115.896C266.535 115.947 266.548 115.999 266.576 116.043C266.604 116.086 266.646 116.119 266.695 116.136C268.02 116.62 271.872 118.088 274.012 119.584C272.16 118.088 268.221 116.535 266.54 115.896Z" fill="black"/>
<path opacity="0.1" d="M279.704 106.238L279.491 106.31C284.219 114.575 275.315 119.567 274.538 119.982C274.672 120.093 274.793 120.195 274.904 120.312L274.964 120.372C274.964 120.372 285.237 115.139 279.704 106.238Z" fill="black"/>
</g>
<path d="M274.291 110.808C270.562 111.771 270.081 110.689 269.84 110.808C269.599 110.927 270.692 110.207 269.48 110.689C268.267 111.17 266.474 109.244 266.474 109.244C266.491 109.031 266.499 108.833 266.499 108.626C266.512 104.604 263.457 100.583 263.457 100.583C257.917 97.5771 259.848 93.2457 259.848 93.2457L259.622 91.2728L259.002 85.891C259.881 85.6181 260.715 85.2175 261.477 84.7022C262.748 83.898 264.081 83.197 265.464 82.6057C265.871 82.431 266.103 82.301 266.103 82.301C266.103 82.301 273.2 86.9882 274.412 93.6079C275.624 100.228 280.427 105.637 280.546 106.479C280.665 107.32 278.019 109.845 274.291 110.808Z" fill="#F9CE43"/>
<g opacity="0.1">
<path opacity="0.1" d="M261.78 78.2104L256.488 81.8195C257.217 82.0726 257.911 82.4185 258.552 82.8486C260.355 82.5951 261.458 81.3039 262.202 79.7145C261.912 79.2501 262.04 78.8346 261.78 78.2104Z" fill="black"/>
</g>
<path d="M257.691 82.7825C260.614 82.7825 262.984 80.4131 262.984 77.4902C262.984 74.5674 260.614 72.1979 257.691 72.1979C254.769 72.1979 252.399 74.5674 252.399 77.4902C252.399 80.4131 254.769 82.7825 257.691 82.7825Z" fill="#FDB797"/>
<g opacity="0.1">
<path opacity="0.1" d="M275.132 110.207C271.404 111.17 270.922 110.088 270.681 110.207C270.441 110.326 271.534 109.606 270.321 110.088C269.109 110.569 267.315 108.643 267.315 108.643C267.332 108.43 267.341 108.232 267.341 108.025C267.356 104.009 264.307 99.9825 264.307 99.9825C258.767 96.9763 260.698 92.6449 260.698 92.6449L260.474 90.6698L259.888 85.5757C259.605 85.7033 259.312 85.808 259.012 85.8889L259.622 91.2728L259.85 93.2457C259.85 93.2457 257.932 97.5771 263.459 100.583C263.459 100.583 266.508 104.61 266.493 108.626C266.493 108.839 266.493 109.037 266.467 109.244C266.467 109.244 268.272 111.162 269.473 110.689C270.675 110.216 269.593 110.929 269.833 110.808C270.074 110.686 270.556 111.771 274.284 110.808C275.976 110.37 277.561 109.594 278.944 108.526C277.771 109.286 276.484 109.853 275.132 110.207Z" fill="black"/>
</g>
<path d="M265.148 89.2764C265.148 89.2764 262.142 90.3588 260.461 92.1633C260.461 92.1633 252.282 95.4103 249.996 95.0502C247.71 94.6902 247.59 94.0872 247.109 93.1327L241.936 83.7583C241.936 83.7583 239.771 75.9392 241.936 76.7807C244.101 77.6223 244.706 82.3202 244.706 82.3202C244.706 82.3202 248.796 90.4994 251.321 90.3801L258.173 87.1118C258.173 87.1118 259.737 84.8257 260.459 84.9471C261.181 85.0686 265.148 89.2764 265.148 89.2764Z" fill="#FDB797"/>
<g opacity="0.1">
<path opacity="0.1" d="M261.088 84.8726C261.088 84.8726 258.593 84.6446 257.87 87.7723C257.148 90.8999 263.41 92.8238 263.41 92.8238L266.778 88.1366L261.088 84.8726Z" fill="black"/>
</g>
<path d="M261.209 84.8726C261.209 84.8726 258.714 84.6446 257.992 87.7723C257.27 90.8999 263.531 92.8238 263.531 92.8238L266.9 88.1366L261.209 84.8726Z" fill="#F9CE43"/>
<g opacity="0.1">
<path opacity="0.1" d="M260.19 85.4287C259.813 85.6189 259.418 85.7717 259.01 85.8846L259.031 86.0657C259.429 85.8741 259.816 85.6614 260.19 85.4287Z" fill="black"/>
<path opacity="0.1" d="M280.546 106.479C280.427 105.626 275.614 100.223 274.412 93.6079C273.21 86.9925 266.103 82.301 266.103 82.301C266.103 82.301 265.868 82.431 265.464 82.6057C264.383 83.0701 263.331 83.6002 262.315 84.193C262.989 83.8379 263.678 83.5098 264.381 83.2086C264.788 83.0339 265.02 82.904 265.02 82.904C265.02 82.904 272.117 87.5912 273.33 94.2108C274.542 100.83 279.344 106.24 279.464 107.082C279.54 107.612 278.515 108.812 276.813 109.868C279.15 108.707 280.637 107.113 280.546 106.479Z" fill="black"/>
</g>
<path opacity="0.1" d="M262.639 84.9216C262.639 84.9216 265.749 86.462 266.335 89.4234" stroke="black" stroke-miterlimit="10"/>
<g opacity="0.1">
<path opacity="0.1" d="M255.033 77.1919C255.529 77.3027 256.083 77.4583 256.328 77.9035C256.505 78.2274 256.473 78.6343 256.645 78.9688C257.089 79.804 258.388 79.5164 259.202 80.0064C260.693 80.9055 259.72 83.7093 261.205 84.6127C261.484 84.7831 261.814 84.8513 262.102 85.0068C263.357 85.6928 263.18 87.5081 262.954 88.9206C262.728 90.3332 262.997 92.2656 264.413 92.4659C265.193 92.5745 266.069 92.0589 266.725 92.4914C267.068 92.7173 267.224 93.1306 267.511 93.431C267.709 93.6281 267.96 93.7631 268.233 93.8195C268.506 93.8759 268.79 93.8512 269.049 93.7485C269.531 93.5482 269.878 93.0901 270.379 92.9431C271.184 92.7066 272.083 93.3586 272.859 93.0582C273.634 92.7578 273.811 91.6371 273.611 90.7913C273.411 89.9454 273.002 89.0868 273.215 88.2346C273.391 87.5315 273.967 86.9946 274.218 86.3171C274.955 84.3165 272.669 82.2499 273.091 80.1598C273.274 79.2543 273.956 78.4554 273.943 77.5414C273.922 76.4761 272.978 75.6686 271.996 75.2766C271.014 74.8846 269.936 74.7738 268.975 74.337C266.868 73.3783 265.715 71.0602 263.789 69.7734C262.926 69.2104 261.954 68.8371 260.936 68.6783C259.623 68.4668 258.28 68.538 256.996 68.887C255.712 69.2361 254.518 69.8549 253.492 70.7023C253.303 70.8557 253.109 71.0006 252.913 71.1412C252.09 71.7356 251.208 72.3215 250.708 73.2035C248.879 76.3866 253.079 76.7509 255.033 77.1919Z" fill="black"/>
</g>
<path d="M255.182 76.8915C255.678 77.0023 256.232 77.1579 256.477 77.6032C256.654 77.927 256.622 78.3339 256.794 78.6684C257.238 79.5036 258.537 79.216 259.351 79.706C260.843 80.6051 259.869 83.4089 261.354 84.3123C261.633 84.4827 261.963 84.5509 262.251 84.7064C263.506 85.3925 263.329 87.2077 263.103 88.6203C262.877 90.0328 263.146 91.9652 264.562 92.1655C265.342 92.2742 266.218 91.7586 266.874 92.1911C267.217 92.4169 267.373 92.8302 267.66 93.1306C267.858 93.3277 268.109 93.4627 268.382 93.5191C268.655 93.5755 268.939 93.5508 269.199 93.4481C269.68 93.2478 270.027 92.7897 270.528 92.6427C271.333 92.4062 272.232 93.0582 273.008 92.7578C273.783 92.4574 273.96 91.3367 273.76 90.4909C273.56 89.6451 273.151 88.7864 273.364 87.9342C273.541 87.2311 274.116 86.6942 274.367 86.0167C275.104 84.0161 272.818 81.9495 273.24 79.8594C273.423 78.9539 274.105 78.155 274.092 77.241C274.071 76.1757 273.127 75.3682 272.145 74.9762C271.163 74.5842 270.085 74.4734 269.124 74.0366C267.017 73.0779 265.864 70.7598 263.938 69.473C263.156 68.9593 262.28 68.6046 261.36 68.429C260.006 68.1693 258.612 68.2119 257.276 68.5536C255.941 68.8954 254.697 69.528 253.635 70.4061C253.447 70.5574 253.253 70.7023 253.062 70.8322C252.239 71.4267 251.357 72.0126 250.857 72.8946C249.029 76.0862 253.23 76.4527 255.182 76.8915Z" fill="#00BAFC"/>
<path d="M212.302 110.164H175.23V103.178C184.287 98.9449 198.223 96.5672 212.302 110.164Z" fill="#00BAFC"/>
<g opacity="0.1">
<path opacity="0.1" d="M241.065 109.165V110.164H194.832V109.951C194.832 109.951 217.582 87.8 241.065 109.165Z" fill="black"/>
</g>
<path d="M241.491 109.165V110.164H195.258V109.951C195.258 109.951 218.008 87.8 241.491 109.165Z" fill="#00BAFC"/>
<path d="M182.9 82.2541C184.783 82.2541 186.309 80.7279 186.309 78.8452C186.309 76.9626 184.783 75.4364 182.9 75.4364C181.018 75.4364 179.492 76.9626 179.492 78.8452C179.492 80.7279 181.018 82.2541 182.9 82.2541Z" fill="#00BAFC"/>
<path d="M211.923 76.2673C211.533 76.2673 211.098 76.2673 210.802 76.2907C210.67 76.298 210.539 76.3246 210.414 76.3696L208.41 77.0897C210.029 77.1302 211.718 77.1174 213.378 77.1046L222.684 77.0322C223.635 77.0322 224.632 77.0151 225.422 76.9597C225.953 76.9214 226.342 76.866 226.832 76.8234C228.594 76.6657 231.162 76.6955 233.456 76.704C235.751 76.7126 238.521 76.6529 239.328 76.4228H234.402C233.872 76.4228 233.314 76.4228 232.845 76.3972C232.297 76.3653 231.963 76.3056 231.481 76.263C230.685 76.1948 229.585 76.1863 228.562 76.1821C222.948 76.1586 217.405 76.2907 211.923 76.2673Z" fill="#F4F4F4"/>
<path d="M217.437 80.3963C217.351 80.3963 217.258 80.3963 217.194 80.3963C217.165 80.3978 217.136 80.4035 217.109 80.4133L216.683 80.5689C217.034 80.5689 217.398 80.5689 217.758 80.5689L219.774 80.554C219.987 80.554 220.2 80.554 220.366 80.5391C220.481 80.5391 220.567 80.5177 220.671 80.5092C221.052 80.4751 221.608 80.4815 222.107 80.4837C222.534 80.498 222.962 80.4773 223.385 80.4219H222.32C222.205 80.4219 222.083 80.4219 221.983 80.4219C221.883 80.4219 221.792 80.4027 221.687 80.392C221.515 80.3771 221.276 80.375 221.048 80.375C219.834 80.375 218.632 80.4027 217.437 80.3963Z" fill="#F4F4F4"/>
<path d="M203.162 86.3618C203.077 86.3618 202.983 86.3618 202.919 86.3618C202.89 86.3633 202.861 86.369 202.834 86.3789L202.408 86.5344C202.759 86.5344 203.124 86.5344 203.484 86.5344L205.499 86.5195C205.712 86.5195 205.925 86.5195 206.092 86.5046C206.207 86.5046 206.292 86.4833 206.396 86.4748C206.778 86.4407 207.334 86.4471 207.832 86.4492C208.259 86.4635 208.687 86.4429 209.111 86.3874H208.045C207.93 86.3874 207.809 86.3874 207.709 86.3874C207.608 86.3874 207.517 86.3682 207.412 86.3576C207.24 86.3427 207.001 86.3405 206.773 86.3405C205.559 86.3405 204.357 86.3682 203.162 86.3618Z" fill="#F4F4F4"/>
<path d="M195.153 108.275H193.551C193.551 108.275 193.05 90.7529 195.153 85.3456H195.554C195.554 85.3456 194.152 105.17 195.153 108.275Z" fill="#00BAFC"/>
<path d="M194.052 84.4444C194.052 84.4444 192.75 88.0492 193.351 89.6514C193.351 89.6514 194.252 86.3469 195.302 85.8462C196.353 85.3456 197.454 89.6514 197.454 89.6514C197.454 89.6514 198.055 86.9477 196.954 84.7511C196.954 84.7511 199.157 85.9528 200.258 88.2559C200.258 88.2559 200.458 86.7645 197.855 83.6497C197.855 83.6497 200.158 84.2505 201.66 85.6524C201.66 85.6524 202.161 84.5509 199.056 82.7484C199.056 82.7484 199.457 81.4467 201.86 82.0475C201.86 82.0475 201.86 80.343 198.055 80.6456C198.055 80.6456 198.055 79.5441 200.558 79.7444C200.558 79.7444 200.558 78.3424 197.655 78.8431C197.655 78.8431 198.255 77.9419 198.656 77.7416C198.155 77.6953 197.655 77.8382 197.254 78.1422C197.254 78.1422 197.354 76.3397 195.852 75.6388L195.652 78.1422C195.652 78.1422 193.969 76.1586 194.35 76.54C194.45 76.6401 194.751 77.8418 194.65 78.4426C194.65 78.4426 192.946 77.0407 190.845 78.5427C190.845 78.5427 193.449 78.743 193.849 79.6442C193.849 79.6442 191.646 79.2437 191.146 79.5441C191.146 79.5441 192.85 80.1449 192.748 80.5454C192.748 80.5454 189.744 80.5454 189.339 81.6469C189.339 81.6469 192.443 82.0475 192.643 82.3479C192.643 82.3479 189.039 84.9514 188.838 85.6524C188.838 85.6524 192.543 83.4494 193.144 83.4494C193.745 83.4494 190.44 86.6452 190.641 87.4548C190.649 87.4484 193.361 84.2441 194.052 84.4444Z" fill="#00BAFC"/>
<path d="M214.914 107.618H216.137C216.137 107.618 216.521 94.2321 214.914 90.101H214.607C214.607 90.101 215.681 105.243 214.914 107.618Z" fill="#00BAFC"/>
<path d="M215.756 89.4128C215.756 89.4128 216.751 92.1676 216.29 93.3905C216.29 93.3905 215.602 90.8658 214.799 90.4845C213.996 90.1031 213.154 93.3905 213.154 93.3905C213.154 93.3905 212.696 91.326 213.538 89.6429C212.461 90.2803 211.586 91.2085 211.013 92.321C211.013 92.321 210.86 91.1726 212.85 88.8013C212.85 88.8013 211.09 89.2594 209.944 90.3311C209.944 90.3311 209.56 89.4895 211.934 88.1132C211.934 88.1132 211.627 87.1182 209.792 87.5784C209.792 87.5784 209.792 86.2787 212.698 86.5131C212.698 86.5131 212.698 85.6715 210.781 85.8249C210.781 85.8249 210.781 84.7597 212.999 85.1368C212.999 85.1368 212.541 84.4486 212.234 84.2952C212.615 84.2615 212.995 84.3709 213.299 84.602C213.299 84.602 213.222 83.2257 214.364 82.6845L214.518 84.602C214.518 84.602 215.796 83.0872 215.513 83.3791C215.33 83.8404 215.251 84.3367 215.283 84.8321C215.283 84.8321 216.582 83.7668 218.189 84.9088C218.189 84.9088 216.199 85.0622 215.894 85.7504C215.894 85.7504 217.577 85.4436 217.959 85.6737C217.959 85.6737 216.659 86.1317 216.736 86.4385C216.736 86.4385 219.03 86.4385 219.337 87.2801C219.337 87.2801 216.966 87.5869 216.812 87.8149C216.812 87.8149 219.567 89.8048 219.719 90.3396C219.719 90.3396 216.889 88.6564 216.429 88.6564C215.969 88.6564 218.493 91.1044 218.346 91.7159C218.357 91.7074 216.293 89.2637 215.756 89.4128Z" fill="#00BAFC"/>
<path d="M229.558 105.002H230.316C230.316 105.002 230.552 96.7121 229.558 94.1533H229.368C229.368 94.1533 230.03 103.538 229.558 105.002Z" fill="#00BAFC"/>
<path d="M230.079 93.7272C230.079 93.7272 230.695 95.4316 230.412 96.1901C230.412 96.1901 229.986 94.6263 229.487 94.3898C228.989 94.1533 228.469 96.1901 228.469 96.1901C228.469 96.1901 228.185 94.9118 228.705 93.8678C228.038 94.2622 227.496 94.8367 227.141 95.5254C227.141 95.5254 227.048 94.8138 228.279 93.3458C227.618 93.5297 227.004 93.853 226.479 94.2939C226.479 94.2939 226.242 93.7719 227.71 92.9197C227.71 92.9197 227.521 92.304 226.383 92.5873C226.383 92.5873 226.383 91.782 228.183 91.9247C228.183 91.9247 228.183 91.4027 226.999 91.4986C226.999 91.4986 226.999 90.836 228.373 91.0725C228.246 90.8729 228.086 90.6964 227.9 90.5505C228.137 90.5288 228.373 90.5964 228.563 90.7401C228.563 90.7401 228.516 89.8879 229.225 89.5555L229.319 90.7401C229.319 90.7401 230.116 89.8027 229.935 89.9817C229.821 90.2671 229.772 90.5742 229.792 90.8807C230.055 90.6889 230.374 90.5894 230.7 90.5979C231.026 90.6064 231.339 90.7223 231.592 90.9276C231.592 90.9276 230.361 91.0214 230.171 91.4496C230.171 91.4496 231.213 91.26 231.449 91.4027C231.449 91.4027 230.644 91.6861 230.691 91.8757C230.691 91.8757 232.112 91.8757 232.302 92.3977C232.302 92.3977 230.834 92.5873 230.738 92.7301C230.738 92.7301 232.442 93.9615 232.538 94.2939C232.538 94.2939 230.785 93.2521 230.501 93.2521C230.218 93.2521 231.78 94.769 231.686 95.1461C231.69 95.1482 230.41 93.6313 230.079 93.7272Z" fill="#00BAFC"/>
<path d="M201.86 95.6276L201.7 94.7754C201.7 94.7127 201.687 94.6508 201.662 94.5933C201.637 94.5358 201.601 94.4839 201.556 94.4409L200.816 94.0787C200.762 94.0147 200.717 93.9429 200.684 93.8657L200.697 93.8465C200.738 93.7959 200.767 93.737 200.782 93.6739C200.784 93.6576 200.784 93.6412 200.782 93.6249H200.793C200.861 93.634 200.93 93.6172 200.987 93.5777C201.043 93.5383 201.083 93.4791 201.098 93.4119V93.3927C201.084 93.4503 201.053 93.5021 201.008 93.5405C200.963 93.5788 200.907 93.6017 200.848 93.6057C200.951 93.5368 201.035 93.4436 201.094 93.3344C201.152 93.2251 201.183 93.1032 201.183 92.9794C201.183 92.9794 201.183 92.9581 201.183 92.9474C201.215 92.9274 201.243 92.9007 201.265 92.8692C201.287 92.8376 201.302 92.8018 201.308 92.7642V92.745C201.299 92.7807 201.283 92.8142 201.261 92.8435C201.239 92.8728 201.211 92.8973 201.178 92.9154C201.173 92.8425 201.158 92.7707 201.132 92.7024H201.151C201.224 92.7024 201.294 92.6734 201.345 92.6219C201.397 92.5703 201.426 92.5004 201.426 92.4275C201.426 92.4275 201.426 92.4148 201.426 92.4084C201.421 92.4775 201.39 92.5423 201.339 92.5897C201.289 92.6371 201.222 92.6637 201.153 92.664H201.119V92.6512C201.201 92.6267 201.274 92.5794 201.329 92.5149C201.385 92.4504 201.422 92.3713 201.434 92.2869C201.434 92.2869 201.434 92.2741 201.434 92.2678C201.431 92.3211 201.411 92.3723 201.379 92.4148C201.382 92.3465 201.36 92.2793 201.317 92.2264C201.274 92.1734 201.213 92.1385 201.145 92.1284C201.077 92.1182 201.008 92.1337 200.952 92.1717C200.895 92.2097 200.854 92.2675 200.838 92.3338L200.789 92.3061C200.804 92.2512 200.836 92.2025 200.88 92.1666C200.925 92.1307 200.979 92.1095 201.036 92.1058H201.017C200.959 92.1054 200.903 92.123 200.856 92.1563C200.809 92.1895 200.773 92.2367 200.754 92.2912C200.59 92.2146 200.403 92.2001 200.228 92.2502C200.054 92.3003 199.903 92.4117 199.804 92.5639C199.747 92.6065 199.672 92.6683 199.674 92.7216C199.65 92.7463 199.628 92.7734 199.608 92.8025C199.527 92.9804 199.498 93.1775 199.523 93.3714C199.535 93.4677 199.523 93.5655 199.489 93.6564C199.455 93.7473 199.399 93.8286 199.327 93.8934C199.359 93.9066 199.393 93.9134 199.427 93.9134C199.462 93.9134 199.496 93.9066 199.527 93.8934C199.591 93.8666 199.65 93.8315 199.704 93.789C199.755 93.7583 199.797 93.7169 199.83 93.6675V93.6569C199.865 93.6806 199.903 93.7006 199.943 93.7165C199.958 93.8444 199.962 93.9914 199.904 94.0404L199.915 94.0169C199.778 94.1203 199.607 94.1689 199.436 94.1533C199.332 94.1591 199.232 94.1916 199.145 94.2476C199.058 94.3036 198.987 94.3812 198.939 94.4729L198.707 95.4423V95.4593V95.4764C198.711 95.4894 198.718 95.5013 198.727 95.5107C198.737 95.5201 198.749 95.5266 198.762 95.5296L198.835 95.5488C198.846 95.7144 198.829 95.8807 198.786 96.041C198.737 96.2796 198.709 96.5219 198.703 96.7653C198.72 96.8868 198.75 97.5196 198.765 97.82C198.739 97.9225 198.718 98.0264 198.703 98.131L198.36 100.189C198.36 100.189 198.104 101.836 198.117 102.335L198.072 102.622C198.072 102.622 197.375 103.496 197.58 103.619C197.785 103.743 198.1 103.796 198.4 103.332C198.441 103.222 198.507 103.124 198.592 103.044C198.626 103.015 198.653 102.977 198.669 102.935C198.686 102.894 198.692 102.848 198.688 102.803L198.667 102.59L198.703 102.603H198.724C198.724 102.603 199.067 101.476 199.029 100.686C199.029 100.686 199.668 98.4229 200.147 98.0671V98.0522L200.192 98.0309L200.294 100.223L200.19 102.639L200.166 102.784C200.166 102.784 199.47 103.658 199.674 103.781C199.879 103.905 200.194 103.958 200.495 103.494C200.535 103.384 200.601 103.286 200.686 103.206C200.72 103.177 200.747 103.139 200.764 103.097C200.78 103.055 200.787 103.01 200.782 102.965L200.75 102.646C200.87 102.239 201.176 101.067 201.051 100.387L201.264 98.9428C201.477 98.702 201.449 98.0905 201.449 98.0905C201.617 97.739 201.662 96.3605 201.662 96.3605L201.705 95.6788C201.737 95.6761 201.769 95.6761 201.801 95.6788H201.822H201.835V95.666C201.841 95.6606 201.846 95.6541 201.85 95.6468H201.862V95.6298L201.86 95.6276ZM201.264 97.0125C201.245 96.9656 201.223 96.9187 201.2 96.8719H201.183V96.8548C201.182 96.8492 201.182 96.8434 201.183 96.8378V96.8207C201.193 96.7979 201.201 96.7744 201.208 96.7504C201.236 96.7064 201.25 96.6553 201.249 96.6034C201.274 96.7383 201.279 96.8761 201.264 97.0125ZM201.2 96.4287L201.157 95.9728L201.17 95.9366L201.227 96.5161L201.2 96.4287ZM199.18 96.4905C199.165 96.5073 199.154 96.527 199.148 96.5482C199.141 96.5695 199.139 96.5919 199.142 96.6141C199.142 96.6141 199.142 96.6141 199.142 96.629C199.142 96.6751 199.148 96.7209 199.161 96.7653L199.095 97.0508V96.5054C199.139 96.4479 199.177 96.3866 199.21 96.3222C199.217 96.38 199.206 96.4385 199.18 96.4905Z" fill="url(#paint3_linear_704_161)"/>
<path d="M199.61 92.9708C199.532 93.142 199.503 93.3317 199.527 93.5184C199.538 93.6112 199.527 93.7054 199.494 93.793C199.461 93.8805 199.407 93.9588 199.338 94.0212C199.368 94.034 199.401 94.0406 199.435 94.0406C199.468 94.0406 199.501 94.034 199.532 94.0212C199.593 93.9955 199.65 93.9618 199.702 93.921C199.751 93.8915 199.792 93.8515 199.823 93.8039C199.853 93.7302 199.862 93.6501 199.851 93.5716C199.851 93.4324 199.864 93.2934 199.887 93.1562C199.9 93.071 199.981 92.8387 199.887 92.794C199.794 92.7493 199.651 92.9069 199.61 92.9708Z" fill="#72351C"/>
<path d="M198.202 102.028L198.136 102.454C198.136 102.454 197.465 103.306 197.663 103.415C197.861 103.523 198.164 103.585 198.453 103.138C198.492 103.033 198.555 102.938 198.637 102.861C198.67 102.832 198.695 102.796 198.711 102.756C198.727 102.716 198.733 102.672 198.728 102.629L198.662 101.979L198.202 102.028Z" fill="#333333"/>
<path d="M200.222 102.196L200.156 102.622C200.156 102.622 199.485 103.474 199.683 103.583C199.881 103.692 200.183 103.754 200.473 103.306C200.512 103.201 200.575 103.106 200.656 103.029C200.689 103.001 200.715 102.965 200.731 102.924C200.747 102.884 200.753 102.84 200.748 102.797L200.682 102.147L200.222 102.196Z" fill="#333333"/>
<path d="M199.176 97.102C199.176 97.102 198.86 97.3299 198.75 98.1225L198.419 100.106C198.419 100.106 198.14 101.904 198.191 102.249L198.75 102.441C198.75 102.441 199.08 101.355 199.044 100.598C199.044 100.598 199.715 98.2077 200.186 98.0416L200.286 100.153L200.179 102.528L200.657 102.624C200.657 102.624 201.14 101.112 200.987 100.311L201.236 98.6061C201.236 98.6061 201.522 97.6964 201.125 96.9017L199.176 97.102Z" fill="#4D8AF0"/>
<g opacity="0.1">
<path opacity="0.1" d="M200.137 98.0735V98.0373C199.666 98.2056 198.995 100.594 198.995 100.594C198.983 101.212 198.886 101.826 198.707 102.418L198.767 102.439C198.767 102.439 199.097 101.352 199.061 100.596C199.059 100.598 199.672 98.4251 200.137 98.0735Z" fill="black"/>
<path opacity="0.1" d="M201.144 96.9124H201.08C201.31 97.4464 201.347 98.0432 201.187 98.6019L200.938 100.306C201.085 101.065 200.656 102.46 200.612 102.607L200.674 102.62C200.674 102.62 201.157 101.107 201.004 100.306L201.253 98.6019C201.253 98.6019 201.541 97.6964 201.144 96.9124Z" fill="black"/>
</g>
<path d="M198.748 95.5488C198.747 95.5651 198.752 95.5811 198.763 95.5939C198.773 95.6067 198.787 95.6156 198.803 95.6191C198.959 95.6583 199.104 95.731 199.229 95.8322C199.463 96.0154 198.98 95.4657 198.98 95.4657L198.818 95.5019L198.752 95.5616L198.748 95.5488Z" fill="#F55F44"/>
<path opacity="0.1" d="M198.748 95.5488C198.747 95.5651 198.752 95.5811 198.763 95.5939C198.773 95.6067 198.787 95.6156 198.803 95.6191C198.959 95.6583 199.104 95.731 199.229 95.8322C199.463 96.0154 198.98 95.4657 198.98 95.4657L198.818 95.5019L198.752 95.5616L198.748 95.5488Z" fill="black"/>
<path d="M201.053 96.0346C201.25 95.8946 201.478 95.8047 201.717 95.7725C201.734 95.7725 201.75 95.766 201.761 95.7544C201.773 95.7428 201.779 95.7271 201.779 95.7107C201.779 95.7107 201.221 95.4913 201.053 96.0346Z" fill="#F55F44"/>
<path opacity="0.1" d="M201.779 95.7086C201.779 95.7086 201.221 95.4955 201.053 96.0324C201.053 96.0324 201.464 95.7171 201.749 95.7682" fill="black"/>
<path d="M200.405 93.8678C200.806 93.8678 201.132 93.5425 201.132 93.1413C201.132 92.74 200.806 92.4147 200.405 92.4147C200.004 92.4147 199.679 92.74 199.679 93.1413C199.679 93.5425 200.004 93.8678 200.405 93.8678Z" fill="#72351C"/>
<path d="M199.904 93.6505C199.904 93.6505 200.007 94.0766 199.904 94.1639C199.802 94.2513 199.595 94.4132 199.751 94.5389C199.907 94.6646 200.463 94.8777 200.648 94.7733C200.833 94.6689 201.044 94.7008 200.993 94.4878C200.942 94.2747 200.537 94.3195 200.531 93.2606L199.904 93.6505Z" fill="#FDB797"/>
<path opacity="0.1" d="M198.875 95.421C198.891 95.652 198.876 95.8841 198.831 96.1113C198.784 96.3407 198.756 96.5738 198.75 96.808C198.771 96.9614 198.816 97.9755 198.816 97.9755C198.816 97.9755 198.735 98.8639 199.167 98.783C199.6 98.702 199.101 97.7688 199.101 97.7688L199.122 96.5565C199.24 96.3972 199.313 96.2099 199.336 96.0133C199.368 95.7214 198.875 95.421 198.875 95.421Z" fill="black"/>
<path d="M198.869 95.421C198.884 95.652 198.869 95.8841 198.824 96.1113C198.777 96.3407 198.75 96.5738 198.743 96.808C198.765 96.9614 198.809 97.9755 198.809 97.9755C198.809 97.9755 198.728 98.8639 199.161 98.783C199.593 98.702 199.095 97.7688 199.095 97.7688L199.116 96.5565C199.233 96.3972 199.307 96.2099 199.329 96.0133C199.359 95.7214 198.869 95.421 198.869 95.421Z" fill="#FDB797"/>
<path opacity="0.1" d="M201.637 95.487L201.577 96.4351C201.577 96.4351 201.541 97.7646 201.379 98.1012C201.379 98.1012 201.423 99.0344 200.989 99.011C200.554 98.9875 201.061 97.9904 201.061 97.9904C201.061 97.9904 201.294 96.9528 201.174 96.6247L201.061 95.487H201.637Z" fill="black"/>
<path d="M201.643 95.487L201.583 96.4351C201.583 96.4351 201.547 97.7646 201.385 98.1012C201.385 98.1012 201.43 99.0344 200.995 99.011C200.561 98.9875 201.068 97.9904 201.068 97.9904C201.068 97.9904 201.3 96.9528 201.181 96.6247L201.068 95.487H201.643Z" fill="#FDB797"/>
<path opacity="0.1" d="M200.235 94.5687C200.235 94.5687 200.586 94.7307 200.778 94.2492L201.492 94.5986C201.536 94.6403 201.57 94.6905 201.594 94.7462C201.618 94.8019 201.63 94.8619 201.63 94.9224L201.784 95.7448C201.784 95.7448 201.262 95.568 201.1 96.0537L201.144 96.5161C201.178 96.6302 201.17 96.7527 201.121 96.8612C201.117 96.871 201.114 96.8815 201.114 96.8921C201.114 96.9028 201.117 96.9133 201.121 96.923C201.132 96.9567 201.134 96.9924 201.129 97.0272C201.123 97.0621 201.109 97.0951 201.089 97.1237C201.068 97.1523 201.041 97.1756 201.009 97.1919C200.978 97.2081 200.943 97.2167 200.908 97.217C200.716 97.2192 200.525 97.2342 200.335 97.2618C200.181 97.3065 199.717 97.1744 199.564 97.2618C199.41 97.3491 199.086 97.1957 199.086 97.1957L199.174 96.8207C199.174 96.8207 199.114 96.6375 199.189 96.5715C199.263 96.5054 199.218 95.9323 199.152 95.7704C199.152 95.7704 198.888 95.5211 198.726 95.5573L198.939 94.6092C198.985 94.5208 199.053 94.4458 199.137 94.3917C199.221 94.3375 199.317 94.306 199.417 94.3003C199.582 94.3151 199.746 94.268 199.879 94.1682C199.879 94.1682 199.719 94.5176 200.235 94.5687Z" fill="black"/>
<path opacity="0.1" d="M200.271 94.5517C200.367 94.5773 200.622 94.605 200.776 94.2193L201.49 94.5687C201.533 94.6105 201.568 94.6607 201.592 94.7164C201.616 94.7721 201.628 94.832 201.628 94.8926L201.781 95.715C201.781 95.715 201.259 95.5381 201.098 96.0239L201.142 96.4862L201.172 96.5779C201.185 96.617 201.188 96.6586 201.182 96.6994C201.176 96.7401 201.16 96.7788 201.136 96.8122C201.126 96.8237 201.119 96.8377 201.116 96.8527C201.114 96.8678 201.115 96.8832 201.121 96.8974C201.132 96.9311 201.134 96.9668 201.129 97.0017C201.123 97.0365 201.109 97.0696 201.089 97.0981C201.068 97.1267 201.041 97.1501 201.009 97.1663C200.978 97.1825 200.943 97.1911 200.908 97.1915C200.716 97.1937 200.525 97.2086 200.335 97.2362C200.181 97.2809 199.717 97.1488 199.564 97.2362C199.41 97.3236 199.086 97.1701 199.086 97.1701L199.174 96.7952C199.174 96.7952 199.114 96.6119 199.189 96.5459C199.263 96.4798 199.218 95.9067 199.152 95.7448C199.152 95.7448 198.888 95.4955 198.726 95.5318L198.939 94.5837C198.985 94.4952 199.053 94.4203 199.137 94.3661C199.221 94.312 199.317 94.2805 199.417 94.2747C199.582 94.2895 199.746 94.2424 199.879 94.1426C199.879 94.1426 199.706 94.458 200.16 94.5261L200.271 94.5517Z" fill="black"/>
<path d="M200.271 94.5666C200.367 94.5922 200.622 94.6199 200.776 94.2342L201.49 94.5837C201.533 94.6254 201.568 94.6756 201.592 94.7313C201.616 94.787 201.628 94.8469 201.628 94.9075L201.781 95.7299C201.781 95.7299 201.259 95.5531 201.098 96.0388L201.142 96.5012C201.176 96.6153 201.168 96.7377 201.119 96.8463C201.115 96.856 201.112 96.8666 201.112 96.8772C201.112 96.8878 201.115 96.8984 201.119 96.9081C201.129 96.9418 201.132 96.9775 201.126 97.0123C201.121 97.0472 201.107 97.0802 201.086 97.1088C201.066 97.1374 201.039 97.1607 201.007 97.1769C200.976 97.1931 200.941 97.2018 200.906 97.2021C200.714 97.2043 200.522 97.2193 200.333 97.2469C200.179 97.2916 199.715 97.1595 199.561 97.2469C199.408 97.3342 199.084 97.1808 199.084 97.1808L199.172 96.8058C199.172 96.8058 199.112 96.6226 199.186 96.5566C199.261 96.4905 199.216 95.9174 199.15 95.7555C199.15 95.7555 198.886 95.5062 198.724 95.5424L198.937 94.5943C198.983 94.5059 199.051 94.4309 199.135 94.3768C199.219 94.3226 199.315 94.2911 199.414 94.2854C199.58 94.3002 199.744 94.2531 199.877 94.1533C199.877 94.1533 199.704 94.4686 200.158 94.5368L200.271 94.5666Z" fill="#F55F44"/>
<path opacity="0.1" d="M200.541 93.2989L199.917 93.6888C199.933 93.7592 199.945 93.8303 199.953 93.9019C200.025 93.9302 200.101 93.9447 200.177 93.9445C200.33 93.9338 200.473 93.8688 200.582 93.7613C200.554 93.6088 200.54 93.454 200.541 93.2989Z" fill="black"/>
<path d="M200.164 93.8976C200.497 93.8976 200.767 93.6277 200.767 93.2947C200.767 92.9617 200.497 92.6917 200.164 92.6917C199.831 92.6917 199.561 92.9617 199.561 93.2947C199.561 93.6277 199.831 93.8976 200.164 93.8976Z" fill="#FDB797"/>
<path d="M201.053 92.8323C201.199 92.8323 201.317 92.7141 201.317 92.5682C201.317 92.4222 201.199 92.304 201.053 92.304C200.907 92.304 200.789 92.4222 200.789 92.5682C200.789 92.7141 200.907 92.8323 201.053 92.8323Z" fill="#72351C"/>
<path d="M201.104 92.8473C201.037 92.8474 200.973 92.8222 200.924 92.7768C200.875 92.7313 200.845 92.6689 200.84 92.6022C200.84 92.6022 200.84 92.615 200.84 92.6214C200.84 92.6915 200.868 92.7587 200.917 92.8082C200.967 92.8578 201.034 92.8856 201.104 92.8856C201.174 92.8856 201.241 92.8578 201.291 92.8082C201.34 92.7587 201.368 92.6915 201.368 92.6214C201.368 92.6214 201.368 92.6086 201.368 92.6022C201.363 92.6689 201.333 92.7313 201.284 92.7768C201.235 92.8222 201.171 92.8474 201.104 92.8473Z" fill="#72351C"/>
<path d="M200.953 93.0987C200.887 93.0862 200.829 93.0494 200.789 92.9956C200.75 92.9419 200.732 92.8752 200.74 92.8089V92.8259C200.727 92.8949 200.742 92.966 200.782 93.0238C200.822 93.0815 200.883 93.1211 200.952 93.1338C201.021 93.1465 201.092 93.1313 201.149 93.0916C201.207 93.0518 201.247 92.9908 201.259 92.9218V92.9026C201.243 92.9684 201.202 93.0255 201.145 93.0619C201.088 93.0984 201.019 93.1116 200.953 93.0987Z" fill="#72351C"/>
<path d="M200.748 93.7378C200.683 93.7254 200.624 93.6885 200.585 93.6348C200.545 93.5811 200.527 93.5143 200.535 93.4481V93.4651C200.522 93.5341 200.538 93.6052 200.577 93.663C200.617 93.7207 200.678 93.7603 200.747 93.773C200.816 93.7857 200.887 93.7705 200.945 93.7308C201.003 93.691 201.042 93.6299 201.055 93.561V93.5418C201.039 93.6076 200.998 93.6646 200.941 93.7011C200.884 93.7376 200.815 93.7507 200.748 93.7378Z" fill="#72351C"/>
<path d="M201.104 92.7066C201.037 92.7068 200.972 92.6813 200.923 92.6354C200.874 92.5895 200.844 92.5266 200.84 92.4595C200.84 92.4595 200.84 92.4723 200.84 92.4787C200.84 92.5487 200.868 92.6159 200.917 92.6655C200.967 92.715 201.034 92.7429 201.104 92.7429C201.174 92.7429 201.241 92.715 201.291 92.6655C201.34 92.6159 201.368 92.5487 201.368 92.4787C201.368 92.4787 201.368 92.4659 201.368 92.4595C201.364 92.5266 201.334 92.5895 201.285 92.6354C201.236 92.6813 201.171 92.7068 201.104 92.7066Z" fill="#72351C"/>
<path d="M200.735 92.5639C200.736 92.4967 200.762 92.4322 200.808 92.3835C200.854 92.3348 200.918 92.3056 200.985 92.3018H200.965C200.895 92.3018 200.828 92.3297 200.779 92.3792C200.729 92.4288 200.701 92.496 200.701 92.566C200.701 92.6361 200.729 92.7033 200.779 92.7528C200.828 92.8024 200.895 92.8302 200.965 92.8302H200.985C200.917 92.8264 200.853 92.7966 200.807 92.747C200.76 92.6974 200.735 92.6318 200.735 92.5639Z" fill="#72351C"/>
<path opacity="0.1" d="M201.002 95.0566C201.029 95.1873 201.029 95.3223 201.002 95.4529C201.002 95.4529 200.965 95.7981 201.023 95.8577" fill="black"/>
<path opacity="0.1" d="M199.216 95.1376C199.244 95.2682 199.244 95.4033 199.216 95.5339C199.216 95.5339 199.18 95.879 199.238 95.9387" fill="black"/>
<path opacity="0.1" d="M199.201 96.5544C199.258 96.5749 199.321 96.5749 199.378 96.5544C199.448 96.5333 199.522 96.5333 199.591 96.5544" fill="black"/>
<path opacity="0.1" d="M199.291 96.0346C199.498 96.0445 199.706 96.0119 199.9 95.9387C199.9 95.9387 200.65 96.1219 200.863 95.9898" fill="black"/>
<path d="M199.065 99.2006H198.888C198.809 99.2006 198.745 99.2645 198.745 99.3433C198.745 99.4221 198.809 99.486 198.888 99.486H199.065C199.144 99.486 199.208 99.4221 199.208 99.3433C199.208 99.2645 199.144 99.2006 199.065 99.2006Z" fill="#FDB797"/>
<path d="M198.748 99.2773L198.995 99.2666L199.208 99.3007H199.133L198.748 99.2773Z" fill="#F0E4E4"/>
<path d="M200.414 98.082H200.661L200.874 98.1033H200.799L200.414 98.082Z" fill="#F0E4E4"/>
<path d="M200.414 98.1332H200.661L200.874 98.1545H200.799L200.414 98.1332Z" fill="#F0E4E4"/>
<path d="M200.414 98.1864H200.661L200.874 98.2077H200.799L200.414 98.1864Z" fill="#F0E4E4"/>
<path d="M200.414 98.2375H200.661L200.874 98.2588H200.799L200.414 98.2375Z" fill="#F0E4E4"/>
<path d="M198.748 99.4754H198.995L199.208 99.501H199.133L198.748 99.4754Z" fill="#F0E4E4"/>
<path d="M198.748 99.4498H198.995L199.208 99.4754H199.133L198.748 99.4498Z" fill="#F0E4E4"/>
<path d="M198.748 99.4243H198.995L199.208 99.4498H199.133L198.748 99.4243Z" fill="#F0E4E4"/>
<path d="M198.748 99.3987H198.995L199.208 99.4243H199.133L198.748 99.3987Z" fill="#F0E4E4"/>
<path d="M198.748 99.2389L198.995 99.2283L199.208 99.2624H199.133L198.748 99.2389Z" fill="#F0E4E4"/>
<path d="M198.748 99.1942L198.995 99.1835L199.208 99.2176H199.133L198.748 99.1942Z" fill="#F0E4E4"/>
<path opacity="0.1" d="M200.267 92.909C200.243 93.1342 200.272 93.3618 200.352 93.5738C200.391 93.6767 200.409 93.7867 200.403 93.8968C200.398 94.0068 200.369 94.1145 200.32 94.213C200.353 94.2205 200.387 94.2202 200.419 94.212C200.452 94.2039 200.482 94.1881 200.507 94.1661C200.56 94.1197 200.606 94.0659 200.644 94.0063C200.683 93.9577 200.712 93.9009 200.727 93.8401C200.733 93.7444 200.719 93.6484 200.684 93.5589C200.643 93.3957 200.613 93.2298 200.595 93.0624C200.582 92.9602 200.595 92.6662 200.48 92.6363C200.365 92.6065 200.288 92.8238 200.267 92.909Z" fill="black"/>
<path d="M200.282 92.9026C200.258 93.1278 200.287 93.3554 200.367 93.5674C200.406 93.6703 200.424 93.7803 200.418 93.8903C200.413 94.0004 200.384 94.1081 200.335 94.2066C200.368 94.2141 200.402 94.2137 200.434 94.2056C200.467 94.1975 200.497 94.1817 200.522 94.1597C200.575 94.1133 200.621 94.0595 200.659 93.9999C200.698 93.9513 200.727 93.8945 200.742 93.8337C200.748 93.738 200.734 93.642 200.699 93.5525C200.658 93.3893 200.628 93.2234 200.61 93.056C200.597 92.9538 200.61 92.6598 200.495 92.6299C200.38 92.6001 200.303 92.8153 200.282 92.9026Z" fill="#72351C"/>
<path opacity="0.1" d="M200.022 93.0603C200.073 93.1136 200.083 93.1924 200.126 93.2521C200.164 93.2927 200.21 93.3244 200.262 93.3451C200.313 93.3657 200.369 93.3747 200.424 93.3714C200.455 93.3698 200.485 93.3764 200.512 93.3905C200.558 93.4204 200.561 93.4885 200.59 93.5354C200.606 93.5525 200.626 93.5661 200.647 93.5755C200.669 93.5848 200.692 93.5896 200.715 93.5896C200.738 93.5896 200.762 93.5848 200.783 93.5755C200.804 93.5661 200.824 93.5525 200.84 93.5354C200.901 93.4619 200.935 93.3692 200.936 93.2734C200.946 93.1678 200.946 93.0615 200.936 92.9559C200.933 92.835 200.885 92.7195 200.801 92.6321C200.731 92.5803 200.651 92.5453 200.565 92.5298C200.448 92.4885 200.322 92.479 200.201 92.5021C200.141 92.5218 200.086 92.5498 200.034 92.5852C199.962 92.6321 199.891 92.6796 199.821 92.7279C199.742 92.7833 199.593 92.8941 199.738 92.9538C199.83 92.9964 199.945 92.9772 200.022 93.0603Z" fill="black"/>
<path d="M200.037 93.0518C200.088 93.105 200.098 93.1839 200.141 93.2435C200.179 93.2841 200.225 93.3159 200.277 93.3365C200.328 93.3572 200.384 93.3661 200.439 93.3628C200.469 93.3612 200.5 93.3679 200.527 93.382C200.573 93.4118 200.576 93.48 200.605 93.5269C200.621 93.544 200.641 93.5576 200.662 93.5669C200.683 93.5763 200.707 93.5811 200.73 93.5811C200.753 93.5811 200.777 93.5763 200.798 93.5669C200.819 93.5576 200.839 93.544 200.855 93.5269C200.916 93.4534 200.95 93.3607 200.951 93.2648C200.961 93.1593 200.961 93.053 200.951 92.9474C200.948 92.8265 200.9 92.711 200.816 92.6235C200.746 92.5718 200.665 92.5368 200.58 92.5213C200.463 92.48 200.337 92.4704 200.215 92.4936C200.156 92.5133 200.1 92.5412 200.049 92.5767C199.977 92.6235 199.906 92.6711 199.836 92.7194C199.757 92.7748 199.608 92.8856 199.753 92.9453C199.845 92.9879 199.966 92.9708 200.037 93.0518Z" fill="#72351C"/>
<path d="M200.429 98.082H200.676L200.889 98.1033H200.818L200.429 98.082Z" fill="#F0E4E4"/>
<path d="M200.429 98.1332H200.676L200.889 98.1545H200.818L200.429 98.1332Z" fill="#F0E4E4"/>
<path d="M200.429 98.1864H200.676L200.889 98.2077H200.818L200.429 98.1864Z" fill="#F0E4E4"/>
<path d="M200.429 98.2375H200.676L200.889 98.2588H200.818L200.429 98.2375Z" fill="#F0E4E4"/>
<path d="M200.322 101.065H200.569L200.782 101.086H200.708L200.322 101.065Z" fill="#F0E4E4"/>
<path d="M200.322 101.118H200.569L200.782 101.139H200.708L200.322 101.118Z" fill="#F0E4E4"/>
<path d="M200.322 101.169H200.569L200.782 101.191H200.708L200.322 101.169Z" fill="#F0E4E4"/>
<path d="M200.322 101.22H200.569L200.782 101.242H200.708L200.322 101.22Z" fill="#F0E4E4"/>
</g>
<path d="M118.148 185.723H121.205L116.352 200H113.051L108.207 185.723H111.264L113.949 194.219C114.099 194.72 114.252 195.306 114.408 195.977C114.571 196.641 114.672 197.103 114.711 197.363C114.783 196.764 115.027 195.716 115.443 194.219L118.148 185.723ZM127.299 190.996C126.667 190.996 126.173 191.198 125.814 191.602C125.456 191.999 125.251 192.565 125.199 193.301H129.379C129.366 192.565 129.174 191.999 128.803 191.602C128.432 191.198 127.93 190.996 127.299 190.996ZM127.719 200.195C125.961 200.195 124.587 199.71 123.598 198.74C122.608 197.77 122.113 196.396 122.113 194.619C122.113 192.79 122.569 191.377 123.48 190.381C124.398 189.378 125.665 188.877 127.279 188.877C128.822 188.877 130.023 189.316 130.883 190.195C131.742 191.074 132.172 192.288 132.172 193.838V195.283H125.131C125.163 196.13 125.414 196.79 125.883 197.266C126.352 197.741 127.009 197.979 127.855 197.979C128.513 197.979 129.135 197.91 129.721 197.773C130.307 197.637 130.919 197.419 131.557 197.119V199.424C131.036 199.684 130.479 199.876 129.887 200C129.294 200.13 128.572 200.195 127.719 200.195ZM140.668 188.877C141.957 188.877 142.966 189.382 143.695 190.391C144.424 191.393 144.789 192.77 144.789 194.521C144.789 196.325 144.411 197.721 143.656 198.711C142.908 199.701 141.885 200.195 140.59 200.195C139.307 200.195 138.301 199.73 137.572 198.799H137.367L136.869 200H134.594V184.805H137.572V188.34C137.572 188.789 137.533 189.508 137.455 190.498H137.572C138.269 189.417 139.301 188.877 140.668 188.877ZM139.711 191.26C138.975 191.26 138.438 191.488 138.1 191.943C137.761 192.393 137.585 193.138 137.572 194.18V194.502C137.572 195.674 137.745 196.514 138.09 197.021C138.441 197.529 138.995 197.783 139.75 197.783C140.362 197.783 140.847 197.503 141.205 196.943C141.57 196.377 141.752 195.557 141.752 194.482C141.752 193.408 141.57 192.604 141.205 192.07C140.84 191.53 140.342 191.26 139.711 191.26ZM154.867 196.758C154.867 197.878 154.477 198.73 153.695 199.316C152.921 199.902 151.758 200.195 150.209 200.195C149.415 200.195 148.738 200.14 148.178 200.029C147.618 199.925 147.094 199.769 146.605 199.561V197.1C147.159 197.36 147.781 197.578 148.471 197.754C149.167 197.93 149.779 198.018 150.307 198.018C151.387 198.018 151.928 197.705 151.928 197.08C151.928 196.846 151.856 196.657 151.713 196.514C151.57 196.364 151.322 196.198 150.971 196.016C150.619 195.827 150.15 195.609 149.564 195.361C148.725 195.01 148.106 194.684 147.709 194.385C147.318 194.085 147.032 193.743 146.85 193.359C146.674 192.969 146.586 192.49 146.586 191.924C146.586 190.954 146.96 190.205 147.709 189.678C148.464 189.144 149.532 188.877 150.912 188.877C152.227 188.877 153.507 189.163 154.75 189.736L153.852 191.885C153.305 191.65 152.794 191.458 152.318 191.309C151.843 191.159 151.358 191.084 150.863 191.084C149.984 191.084 149.545 191.322 149.545 191.797C149.545 192.064 149.685 192.295 149.965 192.49C150.251 192.686 150.873 192.975 151.83 193.359C152.683 193.704 153.308 194.027 153.705 194.326C154.102 194.626 154.395 194.971 154.584 195.361C154.773 195.752 154.867 196.217 154.867 196.758ZM164.125 200L163.549 198.516H163.471C162.969 199.147 162.452 199.587 161.918 199.834C161.391 200.075 160.701 200.195 159.848 200.195C158.799 200.195 157.973 199.896 157.367 199.297C156.768 198.698 156.469 197.845 156.469 196.738C156.469 195.579 156.872 194.727 157.68 194.18C158.493 193.626 159.717 193.32 161.352 193.262L163.246 193.203V192.725C163.246 191.618 162.68 191.064 161.547 191.064C160.674 191.064 159.649 191.328 158.471 191.855L157.484 189.844C158.741 189.186 160.134 188.857 161.664 188.857C163.129 188.857 164.252 189.176 165.033 189.814C165.814 190.452 166.205 191.423 166.205 192.725V200H164.125ZM163.246 194.941L162.094 194.98C161.228 195.007 160.583 195.163 160.16 195.449C159.737 195.736 159.525 196.172 159.525 196.758C159.525 197.598 160.007 198.018 160.971 198.018C161.661 198.018 162.211 197.819 162.621 197.422C163.038 197.025 163.246 196.497 163.246 195.84V194.941ZM167.719 189.082H170.98L173.041 195.225C173.217 195.758 173.337 196.39 173.402 197.119H173.461C173.533 196.449 173.673 195.817 173.881 195.225L175.902 189.082H179.096L174.477 201.396C174.053 202.536 173.448 203.389 172.66 203.955C171.879 204.521 170.964 204.805 169.916 204.805C169.402 204.805 168.897 204.749 168.402 204.639V202.275C168.76 202.36 169.151 202.402 169.574 202.402C170.102 202.402 170.561 202.24 170.951 201.914C171.348 201.595 171.658 201.11 171.879 200.459L172.055 199.922L167.719 189.082ZM185.268 197.822C185.788 197.822 186.413 197.708 187.143 197.48V199.697C186.4 200.029 185.489 200.195 184.408 200.195C183.217 200.195 182.348 199.896 181.801 199.297C181.26 198.691 180.99 197.786 180.99 196.582V191.318H179.564V190.059L181.205 189.062L182.064 186.758H183.969V189.082H187.025V191.318H183.969V196.582C183.969 197.005 184.086 197.318 184.32 197.52C184.561 197.721 184.877 197.822 185.268 197.822ZM199.154 197.822C199.675 197.822 200.3 197.708 201.029 197.48V199.697C200.287 200.029 199.376 200.195 198.295 200.195C197.104 200.195 196.234 199.896 195.688 199.297C195.147 198.691 194.877 197.786 194.877 196.582V191.318H193.451V190.059L195.092 189.062L195.951 186.758H197.855V189.082H200.912V191.318H197.855V196.582C197.855 197.005 197.973 197.318 198.207 197.52C198.448 197.721 198.764 197.822 199.154 197.822ZM210.98 200L210.58 198.604H210.424C210.105 199.111 209.652 199.505 209.066 199.785C208.48 200.059 207.813 200.195 207.064 200.195C205.782 200.195 204.815 199.854 204.164 199.17C203.513 198.48 203.188 197.49 203.188 196.201V189.082H206.166V195.459C206.166 196.247 206.306 196.839 206.586 197.236C206.866 197.627 207.312 197.822 207.924 197.822C208.757 197.822 209.359 197.546 209.73 196.992C210.102 196.432 210.287 195.508 210.287 194.219V189.082H213.266V200H210.98ZM223.988 200H215.365V198.242L220.424 191.357H215.668V189.082H223.812V191.016L218.891 197.725H223.988V200ZM226.029 186.26C226.029 185.29 226.57 184.805 227.65 184.805C228.731 184.805 229.271 185.29 229.271 186.26C229.271 186.722 229.135 187.083 228.861 187.344C228.594 187.598 228.191 187.725 227.65 187.725C226.57 187.725 226.029 187.236 226.029 186.26ZM229.135 200H226.156V189.082H229.135V200ZM239.887 196.758C239.887 197.878 239.496 198.73 238.715 199.316C237.94 199.902 236.778 200.195 235.229 200.195C234.434 200.195 233.757 200.14 233.197 200.029C232.637 199.925 232.113 199.769 231.625 199.561V197.1C232.178 197.36 232.8 197.578 233.49 197.754C234.187 197.93 234.799 198.018 235.326 198.018C236.407 198.018 236.947 197.705 236.947 197.08C236.947 196.846 236.876 196.657 236.732 196.514C236.589 196.364 236.342 196.198 235.99 196.016C235.639 195.827 235.17 195.609 234.584 195.361C233.744 195.01 233.126 194.684 232.729 194.385C232.338 194.085 232.051 193.743 231.869 193.359C231.693 192.969 231.605 192.49 231.605 191.924C231.605 190.954 231.98 190.205 232.729 189.678C233.484 189.144 234.551 188.877 235.932 188.877C237.247 188.877 238.526 189.163 239.77 189.736L238.871 191.885C238.324 191.65 237.813 191.458 237.338 191.309C236.863 191.159 236.378 191.084 235.883 191.084C235.004 191.084 234.564 191.322 234.564 191.797C234.564 192.064 234.704 192.295 234.984 192.49C235.271 192.686 235.893 192.975 236.85 193.359C237.702 193.704 238.327 194.027 238.725 194.326C239.122 194.626 239.415 194.971 239.604 195.361C239.792 195.752 239.887 196.217 239.887 196.758ZM252.289 200H249.311V193.623C249.311 192.048 248.725 191.26 247.553 191.26C246.719 191.26 246.117 191.543 245.746 192.109C245.375 192.676 245.189 193.594 245.189 194.863V200H242.211V184.805H245.189V187.9C245.189 188.141 245.167 188.708 245.121 189.6L245.053 190.479H245.209C245.873 189.411 246.928 188.877 248.373 188.877C249.656 188.877 250.629 189.222 251.293 189.912C251.957 190.602 252.289 191.592 252.289 192.881V200Z" fill="black"/>
<path d="M140.766 227.544V239H139.294V227.544H140.766ZM142.034 235.08C142.034 233.875 142.413 232.877 143.17 232.088C143.938 231.299 144.903 230.904 146.066 230.904C147.229 230.904 148.189 231.299 148.946 232.088C149.714 232.877 150.098 233.875 150.098 235.08C150.098 236.296 149.714 237.293 148.946 238.072C148.189 238.861 147.229 239.256 146.066 239.256C144.903 239.256 143.938 238.861 143.17 238.072C142.413 237.283 142.034 236.285 142.034 235.08ZM143.506 235.08C143.506 235.923 143.751 236.605 144.242 237.128C144.733 237.651 145.341 237.912 146.066 237.912C146.791 237.912 147.399 237.651 147.89 237.128C148.381 236.605 148.626 235.923 148.626 235.08C148.626 234.248 148.381 233.571 147.89 233.048C147.389 232.515 146.781 232.248 146.066 232.248C145.351 232.248 144.743 232.515 144.242 233.048C143.751 233.571 143.506 234.248 143.506 235.08ZM152.751 239H151.279V231.16H152.687V232.44H152.751C152.9 232.024 153.204 231.672 153.663 231.384C154.132 231.085 154.591 230.936 155.039 230.936C155.465 230.936 155.828 231 156.127 231.128L155.679 232.552C155.497 232.477 155.209 232.44 154.815 232.44C154.26 232.44 153.775 232.664 153.359 233.112C152.953 233.56 152.751 234.083 152.751 234.68V239ZM160.127 239.256C158.975 239.256 158.026 238.861 157.279 238.072C156.532 237.283 156.159 236.285 156.159 235.08C156.159 233.885 156.522 232.893 157.247 232.104C157.972 231.304 158.9 230.904 160.031 230.904C161.194 230.904 162.116 231.283 162.799 232.04C163.492 232.787 163.839 233.837 163.839 235.192L163.823 235.352H157.663C157.684 236.12 157.94 236.739 158.431 237.208C158.922 237.677 159.508 237.912 160.191 237.912C161.13 237.912 161.866 237.443 162.399 236.504L163.711 237.144C163.359 237.805 162.868 238.323 162.239 238.696C161.62 239.069 160.916 239.256 160.127 239.256ZM157.775 234.136H162.271C162.228 233.592 162.004 233.144 161.599 232.792C161.204 232.429 160.671 232.248 159.999 232.248C159.444 232.248 158.964 232.419 158.559 232.76C158.164 233.101 157.903 233.56 157.775 234.136ZM166.657 239H165.185V231.16H166.593V232.248H166.657C166.881 231.864 167.222 231.544 167.681 231.288C168.15 231.032 168.614 230.904 169.073 230.904C169.649 230.904 170.156 231.037 170.593 231.304C171.03 231.571 171.35 231.939 171.553 232.408C172.204 231.405 173.105 230.904 174.257 230.904C175.164 230.904 175.862 231.181 176.353 231.736C176.844 232.291 177.089 233.08 177.089 234.104V239H175.617V234.328C175.617 233.592 175.484 233.064 175.217 232.744C174.95 232.413 174.502 232.248 173.873 232.248C173.308 232.248 172.833 232.488 172.449 232.968C172.065 233.448 171.873 234.013 171.873 234.664V239H170.401V234.328C170.401 233.592 170.268 233.064 170.001 232.744C169.734 232.413 169.286 232.248 168.657 232.248C168.092 232.248 167.617 232.488 167.233 232.968C166.849 233.448 166.657 234.013 166.657 234.664V239ZM184.23 228.456C184.23 228.744 184.128 228.989 183.926 229.192C183.723 229.395 183.478 229.496 183.19 229.496C182.902 229.496 182.656 229.395 182.454 229.192C182.251 228.989 182.15 228.744 182.15 228.456C182.15 228.168 182.251 227.923 182.454 227.72C182.656 227.517 182.902 227.416 183.19 227.416C183.478 227.416 183.723 227.517 183.926 227.72C184.128 227.923 184.23 228.168 184.23 228.456ZM183.926 231.16V239H182.454V231.16H183.926ZM189.681 237.912C190.385 237.912 190.977 237.645 191.457 237.112C191.937 236.589 192.177 235.912 192.177 235.08C192.177 234.259 191.937 233.581 191.457 233.048C190.977 232.515 190.385 232.248 189.681 232.248C188.967 232.248 188.369 232.515 187.889 233.048C187.42 233.581 187.185 234.259 187.185 235.08C187.185 235.912 187.42 236.595 187.889 237.128C188.369 237.651 188.967 237.912 189.681 237.912ZM189.921 239.256C189.345 239.256 188.817 239.133 188.337 238.888C187.868 238.643 187.505 238.317 187.249 237.912H187.185L187.249 239V242.456H185.777V231.16H187.185V232.248H187.249C187.505 231.843 187.868 231.517 188.337 231.272C188.817 231.027 189.345 230.904 189.921 230.904C190.956 230.904 191.831 231.309 192.545 232.12C193.281 232.941 193.649 233.928 193.649 235.08C193.649 236.243 193.281 237.229 192.545 238.04C191.831 238.851 190.956 239.256 189.921 239.256ZM200.919 236.824C200.919 237.507 200.621 238.083 200.023 238.552C199.426 239.021 198.674 239.256 197.767 239.256C196.978 239.256 196.285 239.053 195.687 238.648C195.09 238.232 194.663 237.688 194.407 237.016L195.719 236.456C195.911 236.925 196.189 237.293 196.551 237.56C196.925 237.816 197.33 237.944 197.767 237.944C198.237 237.944 198.626 237.843 198.935 237.64C199.255 237.437 199.415 237.197 199.415 236.92C199.415 236.419 199.031 236.051 198.263 235.816L196.919 235.48C195.394 235.096 194.631 234.36 194.631 233.272C194.631 232.557 194.919 231.987 195.495 231.56C196.082 231.123 196.829 230.904 197.735 230.904C198.429 230.904 199.053 231.069 199.607 231.4C200.173 231.731 200.567 232.173 200.791 232.728L199.479 233.272C199.33 232.941 199.085 232.685 198.743 232.504C198.413 232.312 198.039 232.216 197.623 232.216C197.239 232.216 196.893 232.312 196.583 232.504C196.285 232.696 196.135 232.931 196.135 233.208C196.135 233.656 196.557 233.976 197.399 234.168L198.583 234.472C200.141 234.856 200.919 235.64 200.919 236.824ZM209.081 239H207.673V237.912H207.609C207.385 238.296 207.038 238.616 206.569 238.872C206.11 239.128 205.63 239.256 205.129 239.256C204.169 239.256 203.427 238.984 202.905 238.44C202.393 237.885 202.137 237.101 202.137 236.088V231.16H203.609V235.992C203.641 237.272 204.286 237.912 205.545 237.912C206.131 237.912 206.622 237.677 207.017 237.208C207.411 236.728 207.609 236.157 207.609 235.496V231.16H209.081V239ZM212.345 239H210.873V231.16H212.281V232.248H212.345C212.569 231.864 212.91 231.544 213.369 231.288C213.838 231.032 214.302 230.904 214.761 230.904C215.337 230.904 215.843 231.037 216.281 231.304C216.718 231.571 217.038 231.939 217.241 232.408C217.891 231.405 218.793 230.904 219.945 230.904C220.851 230.904 221.55 231.181 222.041 231.736C222.531 232.291 222.777 233.08 222.777 234.104V239H221.305V234.328C221.305 233.592 221.171 233.064 220.905 232.744C220.638 232.413 220.19 232.248 219.561 232.248C218.995 232.248 218.521 232.488 218.137 232.968C217.753 233.448 217.561 234.013 217.561 234.664V239H216.089V234.328C216.089 233.592 215.955 233.064 215.689 232.744C215.422 232.413 214.974 232.248 214.345 232.248C213.779 232.248 213.305 232.488 212.921 232.968C212.537 233.448 212.345 234.013 212.345 234.664V239Z" fill="black"/>
</g>
<defs>
<filter id="filter0_d_704_161" x="0" y="0" width="362" height="302" filterUnits="userSpaceOnUse" color-interpolation-filters="sRGB">
<feFlood flood-opacity="0" result="BackgroundImageFix"/>
<feColorMatrix in="SourceAlpha" type="matrix" values="0 0 0 0 0 0 0 0 0 0 0 0 0 0 0 0 0 0 127 0" result="hardAlpha"/>
<feOffset dy="12"/>
<feGaussianBlur stdDeviation="10.5"/>
<feColorMatrix type="matrix" values="0 0 0 0 0 0 0 0 0 0 0 0 0 0 0 0 0 0 0.1 0"/>
<feBlend mode="normal" in2="BackgroundImageFix" result="effect1_dropShadow_704_161"/>
<feBlend mode="normal" in="SourceGraphic" in2="effect1_dropShadow_704_161" result="shape"/>
</filter>
<linearGradient id="paint0_linear_704_161" x1="175.23" y1="162.998" x2="175.23" y2="114.051" gradientUnits="userSpaceOnUse">
<stop stop-color="#808080" stop-opacity="0.25"/>
<stop offset="0.54" stop-color="#808080" stop-opacity="0.12"/>
<stop offset="1" stop-color="#808080" stop-opacity="0.1"/>
</linearGradient>
<linearGradient id="paint1_linear_704_161" x1="67988.7" y1="52279.1" x2="67988.7" y2="33" gradientUnits="userSpaceOnUse">
<stop stop-color="#808080" stop-opacity="0.25"/>
<stop offset="0.54" stop-color="#808080" stop-opacity="0.12"/>
<stop offset="1" stop-color="#808080" stop-opacity="0.1"/>
</linearGradient>
<linearGradient id="paint2_linear_704_161" x1="41713.5" y1="61080.3" x2="41713.5" y2="26326.6" gradientUnits="userSpaceOnUse">
<stop stop-color="#808080" stop-opacity="0.25"/>
<stop offset="0.54" stop-color="#808080" stop-opacity="0.12"/>
<stop offset="1" stop-color="#808080" stop-opacity="0.1"/>
</linearGradient>
<linearGradient id="paint3_linear_704_161" x1="3168.72" y1="5709.23" x2="3168.72" y2="5058.35" gradientUnits="userSpaceOnUse">
<stop stop-color="#808080" stop-opacity="0.25"/>
<stop offset="0.54" stop-color="#808080" stop-opacity="0.12"/>
<stop offset="1" stop-color="#808080" stop-opacity="0.1"/>
</linearGradient>
<clipPath id="clip0_704_161">
<rect width="202.795" height="130" fill="white" transform="translate(79.6027 33)"/>
</clipPath>
</defs>
</svg>
